<svg width="44" height="51" viewBox="0 0 44 51" fill="none" xmlns="http://www.w3.org/2000/svg">
<path d="M6.00008 51C5.24453 51 4.61075 50.744 4.09875 50.232C3.58853 49.7218 3.33341 49.0889 3.33341 48.3334V42.8667C2.53341 41.9778 1.88897 40.9885 1.40008 39.8987C0.911193 38.8107 0.666748 37.6223 0.666748 36.3334V11C0.666748 7.31115 2.37786 4.61071 5.80008 2.89871C9.2223 1.18848 14.6223 0.333374 22.0001 0.333374C29.6445 0.333374 35.1112 1.1556 38.4001 2.80004C41.689 4.44449 43.3334 7.17782 43.3334 11V36.3334C43.3334 37.6223 43.089 38.8107 42.6001 39.8987C42.1112 40.9885 41.4668 41.9778 40.6667 42.8667V48.3334C40.6667 49.0889 40.4107 49.7218 39.8988 50.232C39.3885 50.744 38.7556 51 38.0001 51H35.3334C34.5779 51 33.945 50.744 33.4347 50.232C32.9227 49.7218 32.6667 49.0889 32.6667 48.3334V45.6667H11.3334V48.3334C11.3334 49.0889 11.0783 49.7218 10.5681 50.232C10.0561 50.744 9.4223 51 8.66675 51H6.00008ZM6.00008 21.6667H38.0001V13.6667H6.00008V21.6667ZM12.6667 37.6667C13.7779 37.6667 14.7219 37.2774 15.4987 36.4987C16.2774 35.7218 16.6667 34.7778 16.6667 33.6667C16.6667 32.5556 16.2774 31.6116 15.4987 30.8347C14.7219 30.056 13.7779 29.6667 12.6667 29.6667C11.5556 29.6667 10.6116 30.056 9.83475 30.8347C9.05608 31.6116 8.66675 32.5556 8.66675 33.6667C8.66675 34.7778 9.05608 35.7218 9.83475 36.4987C10.6116 37.2774 11.5556 37.6667 12.6667 37.6667ZM31.3334 37.6667C32.4445 37.6667 33.3885 37.2774 34.1654 36.4987C34.9441 35.7218 35.3334 34.7778 35.3334 33.6667C35.3334 32.5556 34.9441 31.6116 34.1654 30.8347C33.3885 30.056 32.4445 29.6667 31.3334 29.6667C30.2223 29.6667 29.2783 30.056 28.5014 30.8347C27.7227 31.6116 27.3334 32.5556 27.3334 33.6667C27.3334 34.7778 27.7227 35.7218 28.5014 36.4987C29.2783 37.2774 30.2223 37.6667 31.3334 37.6667Z" fill="#395C4B"/>
</svg>
