<svg width="34" height="26" viewBox="0 0 34 26" fill="none" xmlns="http://www.w3.org/2000/svg">
<path d="M30.5998 0.00012207H3.39976C1.52976 0.00012207 0.0167558 1.46262 0.0167558 3.25012L-0.000244141 22.7501C-0.000244141 24.5376 1.52976 26.0001 3.39976 26.0001H30.5998C32.4698 26.0001 33.9998 24.5376 33.9998 22.7501V3.25012C33.9998 1.46262 32.4698 0.00012207 30.5998 0.00012207ZM29.9198 6.90637L17.9008 14.0889C17.3568 14.4139 16.6428 14.4139 16.0988 14.0889L4.07976 6.90637C3.90929 6.8149 3.76002 6.69132 3.64097 6.54311C3.52191 6.3949 3.43556 6.22514 3.38713 6.0441C3.33871 5.86306 3.32921 5.67452 3.35922 5.48987C3.38923 5.30522 3.45813 5.12832 3.56173 4.96986C3.66534 4.8114 3.80151 4.67469 3.96199 4.56799C4.12247 4.46129 4.30394 4.38683 4.4954 4.34911C4.68686 4.31139 4.88434 4.31119 5.07588 4.34854C5.26742 4.38588 5.44904 4.45999 5.60976 4.56637L16.9998 11.3751L28.3898 4.56637C28.5505 4.45999 28.7321 4.38588 28.9236 4.34854C29.1152 4.31119 29.3127 4.31139 29.5041 4.34911C29.6956 4.38683 29.877 4.46129 30.0375 4.56799C30.198 4.67469 30.3342 4.8114 30.4378 4.96986C30.5414 5.12832 30.6103 5.30522 30.6403 5.48987C30.6703 5.67452 30.6608 5.86306 30.6124 6.0441C30.564 6.22514 30.4776 6.3949 30.3585 6.54311C30.2395 6.69132 30.0902 6.8149 29.9198 6.90637Z" fill="#F1F6F6"/>
</svg>
