<svg width="102" height="102" viewBox="0 0 102 102" fill="none" xmlns="http://www.w3.org/2000/svg">
<path d="M49.36 37L51.88 38.24C50.1733 41.0133 48.1467 43.48 45.8 45.64C43.48 47.8 40.3867 49.9467 36.52 52.08C37.2667 55.9467 38.1867 59.04 39.28 61.36C40.3733 63.7067 41.8 65.0133 43.56 65.28V67.12C43.3467 67.1467 43.0667 67.16 42.72 67.16C40.9333 67.16 39.2 65.92 37.52 63.44C35.8667 60.96 34.3733 57.2933 33.04 52.44C31.8933 56.04 30.1467 58.8933 27.8 61C25.4533 63.08 23.0133 64.12 20.48 64.12C19.1733 64.12 18.0933 63.76 17.24 63.04C16.4133 62.3467 16 61.3867 16 60.16C16 58.9067 16.56 57.6133 17.68 56.28C18.8 54.9467 20.3333 53.8267 22.28 52.92L23.2 54.36C20.8 56.0667 19.6 57.6667 19.6 59.16C19.6 59.88 19.84 60.4667 20.32 60.92C20.8 61.3467 21.4267 61.56 22.2 61.56C24.0133 61.56 25.5733 60.8 26.88 59.28C28.2133 57.7333 29.4 55.04 30.44 51.2C31.7467 46.3733 33.08 43.2133 34.44 41.72C35.0533 41.0267 35.9467 40.2667 37.12 39.44C35.28 39.4933 33.4 39.8133 31.48 40.4C29.56 40.96 27.88 41.8133 26.44 42.96C25 44.08 24.28 45.3333 24.28 46.72C24.28 48.5067 25.0933 49.9333 26.72 51L25.92 52.24C24.4267 51.52 23.2533 50.5867 22.4 49.44C21.5467 48.2933 21.12 47.1067 21.12 45.88C21.12 44.2 22.04 42.6133 23.88 41.12C25.72 39.6267 27.9733 38.4667 30.64 37.64C33.3333 36.8133 35.9733 36.4 38.56 36.4C40.16 36.4 40.96 36.7467 40.96 37.44C40.96 37.8933 40.4933 38.4667 39.56 39.16C37.8533 40.44 36.5333 42.1067 35.6 44.16C34.6933 46.2133 33.9467 48.6133 33.36 51.36C36.4 50.24 39.3067 48.3867 42.08 45.8C44.88 43.1867 47.3067 40.2533 49.36 37Z" fill="#F1F6F6"/>
<path d="M83.08 65.12L82.6 66.6C81.9067 66.6533 81.3867 66.68 81.04 66.68C79.44 66.68 78.1333 66 77.12 64.64C76.1333 63.3067 75.64 61.56 75.64 59.4C75.64 58.0933 75.9333 55.6267 76.52 52C77.1333 48.3467 77.84 45.0133 78.64 42C78.8 41.3333 78.88 40.8933 78.88 40.68C78.88 40.4667 78.7867 40.36 78.6 40.36C78.4133 40.36 77.8133 41.36 76.8 43.36C75.8133 45.3333 74.6267 47.7733 73.24 50.68C71.8533 53.56 71.0533 55.2133 70.84 55.64C70.6533 56.04 70.4933 56.3733 70.36 56.64C70.2533 56.88 70.0133 57.3333 69.64 58C69.2933 58.64 68.96 59.2133 68.64 59.72C67.76 61.0533 67.0667 61.72 66.56 61.72C66.2133 61.72 65.8267 61.6267 65.4 61.44C65 61.2533 64.7333 61.0533 64.6 60.84C64.3067 60.3867 64.16 58.9733 64.16 56.6C64.16 51.64 64.56 46.9067 65.36 42.4C65.6267 40.9067 65.76 40.12 65.76 40.04C65.76 39.7733 65.6533 39.64 65.44 39.64C65.0133 39.64 64.3333 40.9733 63.4 43.64L62.24 46.96C60.5333 51.7867 58.8 55.5467 57.04 58.24C55.3067 60.9333 53.3067 62.8267 51.04 63.92L50 61.72C52.5867 59.8 54.5733 57.84 55.96 55.84C57.3733 53.84 58.9067 50.6133 60.56 46.16L61.92 42.52C62.8533 39.9867 63.6667 38.1867 64.36 37.12C65.0533 36.0267 65.8267 35.48 66.68 35.48C68.0933 35.48 68.8 36.3333 68.8 38.04C68.8 38.1733 68.5467 40.88 68.04 46.16C67.5333 51.4133 67.28 54.88 67.28 56.56C67.28 57.04 67.36 57.2933 67.52 57.32C67.6533 57.32 67.8 57.1867 67.96 56.92C70.12 53.32 72.1867 49.4 74.16 45.16C74.4 44.6267 74.8133 43.7067 75.4 42.4C75.9867 41.0933 76.56 39.9333 77.12 38.92C77.68 37.9067 78.1067 37.2933 78.4 37.08C78.6933 36.84 79.16 36.72 79.8 36.72C80.44 36.72 80.9867 36.96 81.44 37.44C81.92 37.8933 82.16 38.44 82.16 39.08C82.16 39.72 82.0667 40.4533 81.88 41.28C79.8 51.44 78.76 57.52 78.76 59.52C78.76 61.4933 79.08 62.84 79.72 63.56C80.36 64.3067 81.48 64.8267 83.08 65.12Z" fill="#F1F6F6"/>
<path d="M51 100C78.062 100 100 78.062 100 51C100 23.938 78.062 2 51 2C23.938 2 2 23.938 2 51C2 78.062 23.938 100 51 100Z" stroke="#395C4B" stroke-width="4"/>
</svg>
