<svg width="22" height="36" viewBox="0 0 22 36" fill="none" xmlns="http://www.w3.org/2000/svg">
<path d="M17.769 0.00012207H4.23053C3.10846 0.00012207 2.03234 0.431127 1.23892 1.19832C0.445496 1.96552 -0.000244141 3.00605 -0.000244141 4.09103V31.9092C-0.000244141 32.9942 0.445496 34.0347 1.23892 34.8019C2.03234 35.5691 3.10846 36.0001 4.23053 36.0001H17.769C18.8911 36.0001 19.9672 35.5691 20.7606 34.8019C21.554 34.0347 21.9998 32.9942 21.9998 31.9092V4.09103C21.9998 3.00605 21.554 1.96552 20.7606 1.19832C19.9672 0.431127 18.8911 0.00012207 17.769 0.00012207ZM10.9998 34.3638C9.59514 34.3638 8.46129 33.2674 8.46129 31.9092C8.46129 30.551 9.59514 29.4547 10.9998 29.4547C12.4044 29.4547 13.5382 30.551 13.5382 31.9092C13.5382 33.2674 12.4044 34.3638 10.9998 34.3638ZM18.6151 27.8183H3.38437V4.90921H18.6151V27.8183Z" fill="#F1F6F6"/>
</svg>
