<svg width="24" height="34" viewBox="0 0 24 34" fill="none" xmlns="http://www.w3.org/2000/svg">
<path d="M11.9998 -0.00012207C5.36547 -0.00012207 -0.000244141 5.32088 -0.000244141 11.8999C-0.000244141 20.8249 11.9998 33.9999 11.9998 33.9999C11.9998 33.9999 23.9998 20.8249 23.9998 11.8999C23.9998 5.32088 18.634 -0.00012207 11.9998 -0.00012207ZM11.9998 16.1499C10.8631 16.1499 9.77303 15.7021 8.9693 14.9051C8.16557 14.1081 7.71404 13.027 7.71404 11.8999C7.71404 10.7727 8.16557 9.6917 8.9693 8.89467C9.77303 8.09764 10.8631 7.64988 11.9998 7.64988C13.1364 7.64988 14.2265 8.09764 15.0302 8.89467C15.8339 9.6917 16.2855 10.7727 16.2855 11.8999C16.2855 13.027 15.8339 14.1081 15.0302 14.9051C14.2265 15.7021 13.1364 16.1499 11.9998 16.1499Z" fill="#F1F6F6"/>
</svg>
