<svg width="34" height="34" viewbox="0 0 34 34" fill="currentColor" xmlns="http://www.w3.org/2000/svg">
<path d="M16.9899 0.333374C13.6936 0.333374 10.4712 1.31086 7.73041 3.14221C4.98959 4.97357 2.85338 7.57655 1.59192 10.622C0.330464 13.6674 0.000408024 17.0185 0.643495 20.2515C1.28658 23.4846 2.87393 26.4543 5.2048 28.7852C7.53568 31.116 10.5054 32.7034 13.7384 33.3465C16.9714 33.9896 20.3225 33.6595 23.368 32.398C26.4134 31.1366 29.0164 29.0004 30.8477 26.2595C32.6791 23.5187 33.6566 20.2964 33.6566 17C33.6566 14.8113 33.2255 12.6441 32.3879 10.622C31.5503 8.59989 30.3227 6.76257 28.775 5.21493C27.2274 3.66728 25.3901 2.43963 23.368 1.60205C21.3459 0.76447 19.1786 0.333374 16.9899 0.333374ZM22.2899 25.5867C22.2277 25.7424 22.1329 25.883 22.0119 25.999C21.8909 26.1151 21.7464 26.2039 21.5882 26.2594C21.43 26.315 21.2617 26.3361 21.0947 26.3212C20.9277 26.3064 20.7658 26.256 20.6199 26.1734L16.0949 22.6567L13.1916 25.3367C13.1242 25.3865 13.0454 25.4185 12.9624 25.4299C12.8794 25.4412 12.7949 25.4315 12.7166 25.4017L13.2732 20.42L13.2899 20.435L13.3016 20.3367C13.3016 20.3367 21.4432 12.9234 21.7749 12.6084C22.1116 12.2934 21.9999 12.225 21.9999 12.225C22.0199 11.8417 21.3982 12.225 21.3982 12.225L10.6099 19.165L6.11825 17.635C6.11825 17.635 5.42825 17.3884 5.36325 16.8434C5.29492 16.3034 6.13992 16.01 6.13992 16.01L24.0016 8.91337C24.0016 8.91337 25.4699 8.26004 25.4699 9.34337L22.2899 25.5867Z"/>
</svg>
